<svg width="18" height="18" viewBox="0 0 18 18" fill="none" xmlns="http://www.w3.org/2000/svg">
<path fill-rule="evenodd" clip-rule="evenodd" d="M12.0002 7.99999C11.4472 7.99999 11.0002 8.44799 11.0002 8.99999C11.0002 10.103 10.1032 11 9.00018 11C7.89718 11 7.00018 10.103 7.00018 8.99999C7.00018 8.44799 6.55318 7.99999 6.00018 7.99999C5.44718 7.99999 5.00018 8.44799 5.00018 8.99999C5.00018 11.206 6.79418 13 9.00018 13C11.2062 13 13.0002 11.206 13.0002 8.99999C13.0002 8.44799 12.5532 7.99999 12.0002 7.99999ZM14.9999 16H2.99991C2.44791 16 1.99991 15.551 1.99991 15V6.00001H15.9999V15C15.9999 15.551 15.5519 16 14.9999 16ZM5.12115 2.29301C5.30815 2.10701 5.56515 2.00001 5.82815 2.00001H12.1722C12.4352 2.00001 12.6922 2.10701 12.8792 2.29301L14.5862 4.00001H3.41415L5.12115 2.29301ZM17.121 3.707L14.293 0.879C13.727 0.312 12.973 0 12.172 0H5.828C5.027 0 4.273 0.312 3.707 0.879L0.879 3.707C0.312 4.273 0 5.027 0 5.829V15C0 16.654 1.346 18 3 18H15C16.654 18 18 16.654 18 15V5.829C18 5.027 17.688 4.273 17.121 3.707Z" fill="#060606"/>
</svg>
