<svg width="30" height="31" viewBox="0 0 30 31" fill="none" xmlns="http://www.w3.org/2000/svg">
<path d="M18.3752 8.20524C18.1462 8.4389 18.0179 8.75305 18.0179 9.08024C18.0179 9.40743 18.1462 9.72157 18.3752 9.95524L20.3752 11.9552C20.6088 12.1843 20.923 12.3126 21.2502 12.3126C21.5774 12.3126 21.8915 12.1843 22.1252 11.9552L26.8377 7.24274C27.4662 8.63172 27.6565 10.1793 27.3833 11.6792C27.11 13.1791 26.3861 14.56 25.308 15.6381C24.23 16.7161 22.849 17.44 21.3491 17.7133C19.8492 17.9866 18.3017 17.7963 16.9127 17.1677L8.27519 25.8052C7.7779 26.3025 7.10345 26.5819 6.40019 26.5819C5.69692 26.5819 5.02247 26.3025 4.52519 25.8052C4.0279 25.308 3.74854 24.6335 3.74854 23.9302C3.74854 23.227 4.0279 22.5525 4.52519 22.0552L13.1627 13.4177C12.5341 12.0288 12.3438 10.4812 12.6171 8.9813C12.8904 7.48142 13.6143 6.10043 14.6923 5.02239C15.7704 3.94435 17.1514 3.22045 18.6513 2.94716C20.1511 2.67388 21.6987 2.86419 23.0877 3.49274L18.3877 8.19274L18.3752 8.20524Z" stroke="#060606" stroke-width="2" stroke-linecap="round" stroke-linejoin="round"/>
</svg>
