<svg width="30" height="31" viewBox="0 0 30 31" fill="none" xmlns="http://www.w3.org/2000/svg">
<path d="M20 4.08026H1.25V20.3303H20V4.08026Z" stroke="#060606" stroke-width="2" stroke-linecap="round" stroke-linejoin="round"/>
<path d="M20 10.3303H25L28.75 14.0803V20.3303H20V10.3303Z" stroke="#060606" stroke-width="2" stroke-linecap="round" stroke-linejoin="round"/>
<path d="M6.875 26.5803C8.60089 26.5803 10 25.1811 10 23.4553C10 21.7294 8.60089 20.3303 6.875 20.3303C5.14911 20.3303 3.75 21.7294 3.75 23.4553C3.75 25.1811 5.14911 26.5803 6.875 26.5803Z" stroke="#060606" stroke-width="2" stroke-linecap="round" stroke-linejoin="round"/>
<path d="M23.125 26.5803C24.8509 26.5803 26.25 25.1811 26.25 23.4553C26.25 21.7294 24.8509 20.3303 23.125 20.3303C21.3991 20.3303 20 21.7294 20 23.4553C20 25.1811 21.3991 26.5803 23.125 26.5803Z" stroke="#060606" stroke-width="2" stroke-linecap="round" stroke-linejoin="round"/>
</svg>
