<svg width="40" height="40" viewBox="0 0 40 40" fill="none" xmlns="http://www.w3.org/2000/svg">
<path fill-rule="evenodd" clip-rule="evenodd" d="M8.33366 21.6666H28.1087L22.0537 28.9333C21.4637 29.64 21.5603 30.6916 22.267 31.28C22.9753 31.87 24.0253 31.7733 24.6153 31.0667L32.9487 21.0666C33.0137 20.9883 33.0453 20.8966 33.0937 20.81C33.1337 20.74 33.182 20.68 33.212 20.6033C33.287 20.4116 33.332 20.21 33.332 20.0066C33.332 20.005 33.3337 20.0016 33.3337 20C33.3337 19.9983 33.332 19.995 33.332 19.9933C33.332 19.79 33.287 19.5883 33.212 19.3966C33.182 19.32 33.1337 19.26 33.0937 19.19C33.0453 19.1033 33.0137 19.0116 32.9487 18.9333L24.6153 8.93331C24.2837 8.53831 23.8103 8.33331 23.3337 8.33331C22.957 8.33331 22.5787 8.45998 22.267 8.71998C21.5603 9.30831 21.4637 10.36 22.0537 11.0666L28.1087 18.3333H8.33366C7.41366 18.3333 6.66699 19.08 6.66699 20C6.66699 20.92 7.41366 21.6666 8.33366 21.6666Z" fill="#231F20"/>
<mask id="mask0_43:3967" style="mask-type:alpha" maskUnits="userSpaceOnUse" x="6" y="8" width="28" height="24">
<path fill-rule="evenodd" clip-rule="evenodd" d="M8.33366 21.6666H28.1087L22.0537 28.9333C21.4637 29.64 21.5603 30.6916 22.267 31.28C22.9753 31.87 24.0253 31.7733 24.6153 31.0667L32.9487 21.0666C33.0137 20.9883 33.0453 20.8966 33.0937 20.81C33.1337 20.74 33.182 20.68 33.212 20.6033C33.287 20.4116 33.332 20.21 33.332 20.0066C33.332 20.005 33.3337 20.0016 33.3337 20C33.3337 19.9983 33.332 19.995 33.332 19.9933C33.332 19.79 33.287 19.5883 33.212 19.3966C33.182 19.32 33.1337 19.26 33.0937 19.19C33.0453 19.1033 33.0137 19.0116 32.9487 18.9333L24.6153 8.93331C24.2837 8.53831 23.8103 8.33331 23.3337 8.33331C22.957 8.33331 22.5787 8.45998 22.267 8.71998C21.5603 9.30831 21.4637 10.36 22.0537 11.0666L28.1087 18.3333H8.33366C7.41366 18.3333 6.66699 19.08 6.66699 20C6.66699 20.92 7.41366 21.6666 8.33366 21.6666Z" fill="white"/>
</mask>
<g mask="url(#mask0_43:3967)">
<rect width="40" height="40" fill="#231F20"/>
</g>
</svg>
