<svg width="294" height="443" viewBox="0 0 294 443" fill="none" xmlns="http://www.w3.org/2000/svg">
    <path id="1" d="M5.01137 224.302L5.01278 224.295L5.01416 224.287C7.8853 208.925 13.6459 200.035 24.1515 183.823C26.6776 179.924 29.4781 175.603 32.5787 170.666L32.5803 170.663C32.8841 170.179 33.1848 169.699 33.4827 169.224C47.2952 147.191 54.7766 135.257 60.2521 119.249L60.2549 119.241L60.2578 119.232C65.2152 104.494 67.5403 90.8078 68.6944 83.4456C69.8533 76.3394 70.5673 70.1293 71.1593 64.6168C71.2559 63.7175 71.349 62.8395 71.44 61.9811C71.9108 57.5407 72.3261 53.6242 72.8827 49.9888C74.1906 41.4457 76.2289 34.8319 81.341 28.0084C85.9073 21.9614 90.733 18.3521 92.6467 17.0753L92.6642 17.0636L92.6816 17.0517C102.755 10.1533 113.129 8.78004 118.548 8.5H257.512C261.136 9.1216 273.036 11.5502 281.678 22.3579C287.183 29.2778 288.938 36.5972 289.5 40.3353V40.7936V41.5067V42.2199V42.933V43.6461V44.3592V45.0724V45.7855V46.4986V47.2118V47.9249V48.638V49.3512V50.0643V50.7774V51.4906V52.2037V52.9168V53.63V54.3431V55.0562V55.7693V56.4825V57.1956V57.9087V58.6219V59.335V60.0481V60.7613V61.4744V62.1875V62.9007V63.6138V64.3269V65.0401V65.7532V66.4663V67.1794V67.8926V68.6057V69.3188V70.032V70.7451V71.4582V72.1714V72.8845V73.5976V74.3108V75.0239V75.737V76.4501V77.1633V77.8764V78.5895V79.3027V80.0158V80.7289V81.4421V82.1552V82.8683V83.5815V84.2946V85.0077V85.7209V86.434V87.1471V87.8603V88.5734V89.2865V89.9996V90.7128V91.4259V92.139V92.8522V93.5653V94.2784V94.9916V95.7047V96.4178V97.131V97.8441V98.5572V99.2703V99.9835V100.697V101.41V102.123V102.836V103.549V104.262V104.975V105.689V106.402V107.115V107.828V108.541V109.254V109.967V110.68V111.394V112.107V112.82V113.533V114.246V114.959V115.672V116.385V117.099V117.812V118.525V119.238V119.951V120.664V121.377V122.091V122.804V123.517V124.23V124.943V125.656V126.369V127.082V127.796V128.509V129.222V129.935V130.648V131.361V132.074V132.788V133.501V134.214V134.927V135.64V136.353V137.066V137.779V138.493V139.206V139.919V140.632V141.345V142.058V142.771V143.484V144.198V144.911V145.624V146.337V147.05V147.763V148.476V149.19V149.903V150.616V151.329V152.042V152.755V153.468V154.181V154.895V155.608V156.321V157.034V157.747V158.46V159.173V159.887V160.6V161.313V162.026V162.739V163.452V164.165V164.878V165.592V166.305V167.018V167.731V168.444V169.157V169.87V170.583V171.297V172.01V172.723V173.436V174.149V174.862V175.575V176.289V177.002V177.715V178.428V179.141V179.854V180.567V181.28V181.994V182.707V183.42V184.133V184.846V185.559V186.272V186.985V187.699V188.412V189.125V189.838V190.551V191.264V191.977V192.691V193.404V194.117V194.83V195.543V196.256V196.969V197.682V198.396V199.109V199.822V200.535V201.248V201.961V202.674V203.388V204.101V204.814V205.527V206.24V206.953V207.666V208.379V209.093V209.806V210.519V211.232V211.945V212.658V213.371V214.084V214.798V215.511V216.224V216.937V217.65V218.363V219.076V219.79V220.503V221.216V221.929V222.642V223.355V224.068V224.781V225.495V226.208V226.921V227.634V228.347V229.06V229.773V230.486V231.2V231.913V232.626V233.339V234.052V234.765V235.478V236.192V236.905V237.618V238.331V239.044V239.757V240.47V241.183V241.897V242.61V243.323V244.036V244.749V245.462V246.175V246.889V247.602V248.315V249.028V249.741V250.454V251.167V251.88V252.594V253.307V254.02V254.733V255.446V256.159V256.872V257.585V258.299V259.012V259.725V260.438V261.151V261.864V262.577V263.291V264.004V264.717V265.43V266.143V266.856V267.569V268.282V268.996V269.709V270.422V271.135V271.848V272.561V273.274V273.987V274.701V275.414V276.127V276.84V277.553V278.266V278.979V279.693V280.406V281.119V281.832V282.545V283.258V283.971V284.684V285.398V286.111V286.824V287.537V288.25V288.963V289.676V290.39V291.103V291.816V292.529V293.242V293.955V294.668V295.381V296.095V296.808V297.521V298.234V298.947V299.66V300.373V301.086V301.8V302.513V303.226V303.939V304.652V305.365V306.078V306.792V307.505V308.218V308.931V309.644V310.357V311.07V311.783V312.497V313.21V313.923V314.636V315.349V316.062V316.775V317.488V318.202V318.915V319.628V320.341V321.054V321.767V322.48V323.194V323.907V324.62V325.333V326.046V326.759V327.472V328.185V328.899V329.612V330.325V331.038V331.751V332.464V333.177V333.891V334.604V335.317V336.03V336.743V337.456V338.169V338.882V339.596V340.309V341.022V341.735V342.448V343.161V343.874V344.587V345.301V346.014V346.727V347.44V348.153V348.866V349.579V350.293V351.006V351.719V352.432V353.145V353.858V354.571V355.284V355.998V356.711V357.424V358.137V358.85V359.563V360.276V360.99V361.703V362.416V363.129V363.842V364.555V365.268V365.981V366.695V367.408V368.121V368.834V369.547V370.26V370.973V371.686V372.4V373.113V373.826V374.539V375.252V375.965V376.678V377.392V378.105V378.818V379.531V380.244V380.957V381.67V382.383V383.097V383.81V384.523V385.236V385.949V386.662V387.375V388.089V388.802V389.515V390.228V390.941V391.654V392.367V393.08V393.794V394.507V395.22V395.933V396.646V397.359V398.072V398.785V399.499V400.212V400.925V401.638V402.351V403.064V403.777V404.491V404.983C289.061 408.4 287.502 417.973 279.593 426.271L279.587 426.278L279.581 426.284C270.845 435.542 260.188 437.208 257.076 437.5H256.809H256.385H255.961H255.537H255.113H254.688H254.264H253.84H253.416H252.992H252.568H252.143H251.719H251.295H250.871H250.447H250.023H249.598H249.174H248.75H248.326H247.902H247.477H247.053H246.629H246.205H245.781H245.357H244.932H244.508H244.084H243.66H243.236H242.812H242.387H241.963H241.539H241.115H240.691H240.267H239.842H239.418H238.994H238.57H238.146H237.722H237.297H236.873H236.449H236.025H235.601H235.177H234.752H234.328H233.904H233.48H233.056H232.632H232.207H231.783H231.359H230.935H230.511H230.087H229.662H229.238H228.814H228.39H227.966H227.542H227.117H226.693H226.269H225.845H225.421H224.997H224.572H224.148H223.724H223.3H222.876H222.451H222.027H221.603H221.179H220.755H220.331H219.906H219.482H219.058H218.634H218.21H217.786H217.361H216.937H216.513H216.089H215.665H215.241H214.816H214.392H213.968H213.544H213.12H212.696H212.271H211.847H211.423H210.999H210.575H210.151H209.726H209.302H208.878H208.454H208.03H207.606H207.181H206.757H206.333H205.909H205.485H205.061H204.636H204.212H203.788H203.364H202.94H202.516H202.091H201.667H201.243H200.819H200.395H199.971H199.546H199.122H198.698H198.274H197.85H197.425H197.001H196.577H196.153H195.729H195.305H194.88H194.456H194.032H193.608H193.184H192.76H192.335H191.911H191.487H191.063H190.639H190.215H189.79H189.366H188.942H188.518H188.094H187.67H187.245H186.821H186.397H185.973H185.549H185.125H184.7H184.276H183.852H183.428H183.004H182.58H182.155H181.731H181.307H180.883H180.459H180.035H179.61H179.186H178.762H178.338H177.914H177.49H177.065H176.641H176.217H175.793H175.369H174.945H174.52H174.096H173.672H173.248H172.824H172.399H171.975H171.551H171.127H170.703H170.279H169.854H169.43H169.006H168.582H168.158H167.734H167.309H166.885H166.461H166.037H165.613H165.189H164.764H164.34H163.916H163.492H163.068H162.644H162.219H161.795H161.371H160.947H160.523H160.099H159.674H159.25H158.826H158.402H157.978H157.554H157.129H156.705H156.281H155.857H155.433H155.009H154.584H154.16H153.736H153.312H152.888H152.464H152.039H151.615H151.191H150.767H150.343H149.919H149.494H149.07H148.646H148.222H147.798H147.373H146.949H146.525H146.101H145.677H145.253H144.828H144.404H143.98H143.556H143.132H142.708H142.283H141.859H141.435H141.011H140.587H140.163H139.738H139.314H138.89H138.466H138.042H137.618H137.193H136.769H136.345H135.921H135.497H135.073H134.648H134.224H133.8H133.376H132.952H132.528H132.103H131.679H131.255H130.831H130.407H129.983H129.558H129.134H128.71H128.286H127.862H127.438H127.013H126.589H126.165H125.741H125.317H124.893H124.468H124.044H123.62H123.196H122.772H122.347H121.923H121.499H121.075H120.651H120.227H119.802H119.378H118.954H118.53H118.106H117.682H117.257H116.833H116.409H115.985H115.561H115.137H114.712H114.288H113.864H113.44H113.016H112.592H112.167H111.743H111.319H110.895H110.471H110.047H109.622H109.198H108.774H108.35H107.926H107.502H107.077H106.653H106.229H105.805H105.381H104.957H104.532H104.108H103.684H103.26H102.836H102.412H101.987H101.563H101.139H100.715H100.291H99.8665H99.4423H99.0182H98.594H98.1698H97.7457H97.3215H96.8973H96.4731H96.049H95.6248H95.2006H94.7765H94.3523H93.9281H93.504H93.0798H92.6556H92.2315H91.8073H91.3831H90.9589H90.5348H90.1106H89.6864H89.2623H88.8381H88.4139H87.9898H87.5656H87.1414H86.7172H86.2931H85.8689H85.4447H85.0206H84.5964H84.1722H83.7481H83.3239H82.8997H82.4756H82.0514H81.6272H81.203H80.7789H80.3547H79.9305H79.5064H79.0822H78.658H78.2339H77.8097H77.3855H76.9613H76.5372H76.113H75.6888H75.2647H74.8405H74.4163H73.9922H73.568H73.1438H72.7197H72.2955H71.8713H71.4471H71.023H70.5988H70.1746H69.7505H69.3263H68.9021H68.478H68.0538H67.6296H67.2055H66.7813H66.3571H65.9329H65.5088H65.0846H64.6604H64.2363H63.8121H63.3879H62.9638H62.5396H62.1154H61.6912H61.2671H60.8429H60.4187H59.9946H59.5704H59.1462H58.7221H58.2979H57.8737H57.4496H57.0254H56.6012H56.177H55.7529H55.3287H54.9045H54.4804H54.0562H53.632H53.2079H52.7837H52.3595H51.9353H51.5112H51.087H50.6628H50.2387H49.8145H49.3903H48.9662H48.542H48.1178H47.6936H47.2695H46.8453H46.4211H45.997H45.5728H45.1486H44.7245H44.3003H43.8761H43.452H43.0278H42.6036H42.1794H41.7553H41.3311H40.9069H40.4828H40.0586C37.5117 437.5 23.8759 436.962 13.4367 425.73L13.4205 425.713L13.4041 425.696C5.05956 416.959 3.78755 406.665 3.5 403.2V239.824C3.5 236.274 3.77346 230.772 5.01137 224.302Z"
          fill="#595a85" stroke="#32424A" stroke-width="7"/>
<!--    Senior Front-END_Developer Arman Safaryan (Gusan Arman)  -->
    </svg>
