

<?xml version="1.0" encoding="utf-8"?>
<!-- Generator: Adobe Illustrator 23.1.0, SVG Export Plug-In . SVG Version: 6.00 Build 0)  -->
<svg version="1.1" id="Слой_1" xmlns="http://www.w3.org/2000/svg" xmlns:xlink="http://www.w3.org/1999/xlink" x="0px" y="0px"
	 viewBox="0 0 184.45 259.98" enable-background="new 0 0 184.45 259.98" xml:space="preserve" fill="#0A0A0A" stroke="#B20000"  stroke-width="4" stroke-miterlimit="10"	>
<path  d="M17.97,111.23v118.95
	c-0.02,0.5-0.12,5.64,4.09,8.84c3.32,2.52,7.03,2.08,7.78,1.98c37.27,0.09,74.55,0.18,111.82,0.26c1.22-0.12,4.88-0.64,8.11-3.63
	c3.74-3.45,4.31-7.8,4.42-8.9c0-44.7,0-89.41,0-134.11c0,0-3.56-23.74-8.31-33.76s-10.02-21.89-10.02-26.37s0-10.55,0-10.55
	c-0.05-0.83-0.37-4.19-3.16-6.99c-2.8-2.8-6.16-3.11-6.99-3.16c-23.34,0.48-46.68,0.97-70.02,1.45c-0.95-0.02-3.59,0.04-6.11,1.85
	c-3.64,2.6-4.11,6.73-4.17,7.38c0,4.4,0,8.79,0,13.19c-1.9,10.49-4.83,18.45-7.12,23.74c-5.92,13.65-11.87,19.29-16.62,33.76
	C19.46,101.83,18.46,107.55,17.97,111.23z"/>
</svg>
