<?xml version="1.0" encoding="utf-8"?>

<svg width="226" height="336" viewBox="0 0 226 336" fill="none" xmlns="http://www.w3.org/2000/svg"  x="0px" y="0px"
	 xml:space="preserve" fill="#0A0A0A" stroke="#B20000"   stroke-width="4" stroke-miterlimit="10"	>

<path d="M4.6514 169.155L4.65281 169.147L4.65419 169.14C6.83743 157.469 11.183 150.767 19.2687 138.297C21.2221 135.284 23.3937 131.935 25.806 128.097L25.8076 128.095C26.0539 127.702 26.2977 127.313 26.539 126.929C37.1598 110.003 42.9773 100.731 47.2312 88.3061L47.2341 88.2976L47.237 88.2891C51.0823 76.8669 52.884 66.2677 53.7764 60.5804C54.6736 55.0834 55.226 50.2815 55.6831 46.0293C55.758 45.3332 55.83 44.6546 55.9003 43.9919C56.2635 40.5698 56.5815 37.5737 57.0077 34.7922C58.0047 28.2857 59.5438 23.3307 63.3794 18.2151C66.8333 13.6457 70.4813 10.9229 71.9043 9.9743L71.9218 9.9626L71.9392 9.9507C79.5275 4.75903 87.35 3.71433 91.4604 3.5H198.559C201.377 3.98827 210.217 5.85049 216.643 13.8789C220.742 19.0271 222.069 24.4758 222.5 27.2916V27.5841V28.1336V28.6832V29.2328V29.7823V30.3319V30.8815V31.431V31.9806V32.5302V33.0797V33.6293V34.1789V34.7284V35.278V35.8276V36.3772V36.9267V37.4763V38.0259V38.5754V39.125V39.6746V40.2241V40.7737V41.3233V41.8728V42.4224V42.972V43.5216V44.0711V44.6207V45.1703V45.7198V46.2694V46.819V47.3685V47.9181V48.4677V49.0172V49.5668V50.1164V50.6659V51.2155V51.7651V52.3147V52.8642V53.4138V53.9634V54.5129V55.0625V55.6121V56.1616V56.7112V57.2608V57.8103V58.3599V58.9095V59.459V60.0086V60.5582V61.1078V61.6573V62.2069V62.7565V63.306V63.8556V64.4052V64.9547V65.5043V66.0539V66.6034V67.153V67.7026V68.2522V68.8017V69.3513V69.9009V70.4504V71V71.5496V72.0991V72.6487V73.1983V73.7478V74.2974V74.847V75.3966V75.9461V76.4957V77.0453V77.5948V78.1444V78.694V79.2435V79.7931V80.3427V80.8922V81.4418V81.9914V82.5409V83.0905V83.6401V84.1897V84.7392V85.2888V85.8384V86.3879V86.9375V87.4871V88.0366V88.5862V89.1358V89.6853V90.2349V90.7845V91.3341V91.8836V92.4332V92.9828V93.5323V94.0819V94.6315V95.181V95.7306V96.2802V96.8297V97.3793V97.9289V98.4784V99.028V99.5776V100.127V100.677V101.226V101.776V102.325V102.875V103.425V103.974V104.524V105.073V105.623V106.172V106.722V107.272V107.821V108.371V108.92V109.47V110.019V110.569V111.119V111.668V112.218V112.767V113.317V113.866V114.416V114.966V115.515V116.065V116.614V117.164V117.713V118.263V118.812V119.362V119.912V120.461V121.011V121.56V122.11V122.659V123.209V123.759V124.308V124.858V125.407V125.957V126.506V127.056V127.606V128.155V128.705V129.254V129.804V130.353V130.903V131.453V132.002V132.552V133.101V133.651V134.2V134.75V135.3V135.849V136.399V136.948V137.498V138.047V138.597V139.147V139.696V140.246V140.795V141.345V141.894V142.444V142.994V143.543V144.093V144.642V145.192V145.741V146.291V146.841V147.39V147.94V148.489V149.039V149.588V150.138V150.688V151.237V151.787V152.336V152.886V153.435V153.985V154.534V155.084V155.634V156.183V156.733V157.282V157.832V158.381V158.931V159.481V160.03V160.58V161.129V161.679V162.228V162.778V163.328V163.877V164.427V164.976V165.526V166.075V166.625V167.175V167.724V168.274V168.823V169.373V169.922V170.472V171.022V171.571V172.121V172.67V173.22V173.769V174.319V174.869V175.418V175.968V176.517V177.067V177.616V178.166V178.716V179.265V179.815V180.364V180.914V181.463V182.013V182.562V183.112V183.662V184.211V184.761V185.31V185.86V186.409V186.959V187.509V188.058V188.608V189.157V189.707V190.256V190.806V191.356V191.905V192.455V193.004V193.554V194.103V194.653V195.203V195.752V196.302V196.851V197.401V197.95V198.5V199.05V199.599V200.149V200.698V201.248V201.797V202.347V202.897V203.446V203.996V204.545V205.095V205.644V206.194V206.744V207.293V207.843V208.392V208.942V209.491V210.041V210.591V211.14V211.69V212.239V212.789V213.338V213.888V214.438V214.987V215.537V216.086V216.636V217.185V217.735V218.284V218.834V219.384V219.933V220.483V221.032V221.582V222.131V222.681V223.231V223.78V224.33V224.879V225.429V225.978V226.528V227.078V227.627V228.177V228.726V229.276V229.825V230.375V230.925V231.474V232.024V232.573V233.123V233.672V234.222V234.772V235.321V235.871V236.42V236.97V237.519V238.069V238.619V239.168V239.718V240.267V240.817V241.366V241.916V242.466V243.015V243.565V244.114V244.664V245.213V245.763V246.312V246.862V247.412V247.961V248.511V249.06V249.61V250.159V250.709V251.259V251.808V252.358V252.907V253.457V254.006V254.556V255.106V255.655V256.205V256.754V257.304V257.853V258.403V258.953V259.502V260.052V260.601V261.151V261.7V262.25V262.8V263.349V263.899V264.448V264.998V265.547V266.097V266.647V267.196V267.746V268.295V268.845V269.394V269.944V270.494V271.043V271.593V272.142V272.692V273.241V273.791V274.341V274.89V275.44V275.989V276.539V277.088V277.638V278.188V278.737V279.287V279.836V280.386V280.935V281.485V282.034V282.584V283.134V283.683V284.233V284.782V285.332V285.881V286.431V286.981V287.53V288.08V288.629V289.179V289.728V290.278V290.828V291.377V291.927V292.476V293.026V293.575V294.125V294.675V295.224V295.774V296.323V296.873V297.422V297.972V298.522V299.071V299.621V300.17V300.72V301.269V301.819V302.369V302.918V303.468V304.017V304.567V305.116V305.666V306.216V306.765V307.315V307.864V308.192C222.16 310.811 220.965 317.926 215.081 324.095L215.075 324.101L215.069 324.107C208.555 331.004 200.609 332.274 198.253 332.5H198.085H197.758H197.431H197.103H196.776H196.449H196.122H195.795H195.468H195.14H194.813H194.486H194.159H193.832H193.505H193.177H192.85H192.523H192.196H191.869H191.541H191.214H190.887H190.56H190.233H189.906H189.578H189.251H188.924H188.597H188.27H187.943H187.615H187.288H186.961H186.634H186.307H185.979H185.652H185.325H184.998H184.671H184.344H184.016H183.689H183.362H183.035H182.708H182.381H182.053H181.726H181.399H181.072H180.745H180.417H180.09H179.763H179.436H179.109H178.782H178.454H178.127H177.8H177.473H177.146H176.819H176.491H176.164H175.837H175.51H175.183H174.856H174.528H174.201H173.874H173.547H173.22H172.892H172.565H172.238H171.911H171.584H171.257H170.929H170.602H170.275H169.948H169.621H169.294H168.966H168.639H168.312H167.985H167.658H167.33H167.003H166.676H166.349H166.022H165.695H165.367H165.04H164.713H164.386H164.059H163.732H163.404H163.077H162.75H162.423H162.096H161.769H161.441H161.114H160.787H160.46H160.133H159.805H159.478H159.151H158.824H158.497H158.17H157.842H157.515H157.188H156.861H156.534H156.207H155.879H155.552H155.225H154.898H154.571H154.243H153.916H153.589H153.262H152.935H152.608H152.28H151.953H151.626H151.299H150.972H150.645H150.317H149.99H149.663H149.336H149.009H148.681H148.354H148.027H147.7H147.373H147.046H146.718H146.391H146.064H145.737H145.41H145.083H144.755H144.428H144.101H143.774H143.447H143.12H142.792H142.465H142.138H141.811H141.484H141.156H140.829H140.502H140.175H139.848H139.521H139.193H138.866H138.539H138.212H137.885H137.558H137.23H136.903H136.576H136.249H135.922H135.594H135.267H134.94H134.613H134.286H133.959H133.631H133.304H132.977H132.65H132.323H131.996H131.668H131.341H131.014H130.687H130.36H130.033H129.705H129.378H129.051H128.724H128.397H128.069H127.742H127.415H127.088H126.761H126.434H126.106H125.779H125.452H125.125H124.798H124.471H124.143H123.816H123.489H123.162H122.835H122.507H122.18H121.853H121.526H121.199H120.872H120.544H120.217H119.89H119.563H119.236H118.909H118.581H118.254H117.927H117.6H117.273H116.946H116.618H116.291H115.964H115.637H115.31H114.982H114.655H114.328H114.001H113.674H113.347H113.019H112.692H112.365H112.038H111.711H111.384H111.056H110.729H110.402H110.075H109.748H109.42H109.093H108.766H108.439H108.112H107.785H107.457H107.13H106.803H106.476H106.149H105.822H105.494H105.167H104.84H104.513H104.186H103.858H103.531H103.204H102.877H102.55H102.223H101.895H101.568H101.241H100.914H100.587H100.26H99.9324H99.6052H99.278H98.9509H98.6237H98.2965H97.9693H97.6422H97.315H96.9878H96.6606H96.3335H96.0063H95.6791H95.3519H95.0248H94.6976H94.3704H94.0432H93.7161H93.3889H93.0617H92.7345H92.4074H92.0802H91.753H91.4258H91.0987H90.7715H90.4443H90.1171H89.79H89.4628H89.1356H88.8084H88.4813H88.1541H87.8269H87.4997H87.1726H86.8454H86.5182H86.191H85.8639H85.5367H85.2095H84.8823H84.5552H84.228H83.9008H83.5736H83.2465H82.9193H82.5921H82.2649H81.9378H81.6106H81.2834H80.9562H80.6291H80.3019H79.9747H79.6475H79.3204H78.9932H78.666H78.3388H78.0117H77.6845H77.3573H77.0301H76.703H76.3758H76.0486H75.7214H75.3943H75.0671H74.7399H74.4127H74.0856H73.7584H73.4312H73.104H72.7769H72.4497H72.1225H71.7953H71.4682H71.141H70.8138H70.4866H70.1595H69.8323H69.5051H69.1779H68.8508H68.5236H68.1964H67.8692H67.5421H67.2149H66.8877H66.5605H66.2334H65.9062H65.579H65.2518H64.9247H64.5975H64.2703H63.9431H63.616H63.2888H62.9616H62.6344H62.3073H61.9801H61.6529H61.3257H60.9986H60.6714H60.3442H60.017H59.6899H59.3627H59.0355H58.7083H58.3812H58.054H57.7268H57.3996H57.0725H56.7453H56.4181H56.0909H55.7638H55.4366H55.1094H54.7822H54.4551H54.1279H53.8007H53.4735H53.1464H52.8192H52.492H52.1648H51.8377H51.5105H51.1833H50.8561H50.5289H50.2018H49.8746H49.5474H49.2202H48.8931H48.5659H48.2387H47.9115H47.5844H47.2572H46.93H46.6028H46.2757H45.9485H45.6213H45.2941H44.967H44.6398H44.3126H43.9854H43.6583H43.3311H43.0039H42.6767H42.3496H42.0224H41.6952H41.368H41.0409H40.7137H40.3865H40.0593H39.7322H39.405H39.0778H38.7506H38.4235H38.0963H37.7691H37.4419H37.1148H36.7876H36.4604H36.1332H35.8061H35.4789H35.1517H34.8245H34.4974H34.1702H33.843H33.5158H33.1887H32.8615H32.5343H32.2071H31.88H31.5528H31.2256H30.8984C29.0051 332.5 18.7712 332.093 10.9493 323.685L10.9331 323.668L10.9167 323.65C4.69718 317.144 3.72197 309.474 3.5 306.836V180.966C3.5 178.269 3.70801 174.081 4.6514 169.155Z" />
</svg>
