<svg xmlns="http://www.w3.org/2000/svg" width="371.98640689746526" height="526.0612312421754" fill="none" style=""><rect id="backgroundrect" width="100%" height="100%" x="0" y="0" fill="none" stroke="none"/>
    
<!--    Senior Front-END_Developer Arman Safaryan (Gusan Arman)  -->
    <g class="currentLayer" style=""><title>Layer 1</title><path id="1" d="M14.156886020052239,261.94822582488234 L14.158577738186239,261.93998262327926 L14.160233462317487,261.9305618214474 C17.60502750732301,243.8402671036761 24.516595935075898,233.37140106793933 37.1212158140124,214.28014615552496 C40.152030834209356,209.6886828626862 43.51207100049795,204.60027227321282 47.23217117532181,198.78645994268047 L47.23409085547393,198.78292714199358 C47.59859012436115,198.21296863116154 47.959370012953656,197.64772052124547 48.316790461279695,197.08836041247434 C64.8890292746564,171.14229456709916 73.86521370603342,157.08881343431142 80.43471912667735,138.2377889686115 L80.43807856694364,138.2283681667795 L80.44155798721943,138.2177697647186 C86.3894469785991,120.86229758983815 89.17910217968384,104.74542533581118 90.56379146942261,96.07569692992813 C91.95423979961798,87.7074341826669 92.81089706750939,80.39441900060518 93.52117872380039,73.90289773828819 C93.63707941298563,72.84388185235585 93.74878080183827,71.80994885130112 93.85796261049109,70.79909681473457 C94.42282849525752,65.5700807579196 94.92110547474682,60.9580094610734 95.5889142076717,56.67696158859675 C97.15813275203487,46.6166050722973 99.60368528584891,38.828192677791606 105.7371833519384,30.792837515266413 C111.21583052613015,23.671888930553248 117.00570584498698,19.421576424053303 119.30176328695325,17.918016451676657 L119.32275978861722,17.904238528997446 L119.34363631027183,17.8902250862724 C131.42970258811204,9.766667666595728 143.87642877453507,8.149516376130467 150.37814548980674,7.8197412080036734 H317.1071659033503 C321.4552414479423,8.551737510344946 335.73286257946677,11.411657426474347 346.1015350012008,24.138807421348485 C352.70643452464975,32.287683245948514 354.8120836915258,40.90701036203079 355.48637134496425,45.30899777802486 V45.84869196297178 V46.688438686265826 V47.528303169582706 V48.36804989287676 V49.20779661617076 V50.04754333946481 V50.88740782278169 V51.72715454607572 V52.566901269369744 V53.406765752686645 V54.24651247598067 V55.0862591992747 V55.9261236825916 V56.76587040588566 V57.605617129179656 V58.445481612496614 V59.28522833579061 V60.12497505908461 V60.96483954240154 V61.80458626569554 V62.64433298898957 V63.484079712283595 V64.32394419560056 V65.16369091889457 V66.00343764218857 V66.84330212550546 V67.68304884879952 V68.52279557209351 V69.36266005541042 V70.20240677870447 V71.0421535019985 V71.88201798531537 V72.7217647086094 V73.56151143190343 V74.40137591522036 V75.24112263851436 V76.08086936180838 V76.92061608510238 V77.76048056841934 V78.60022729171337 V79.4399740150074 V80.27983849832427 V81.1195852216183 V81.95933194491238 V82.79919642822928 V83.6389431515233 V84.47868987481728 V85.31855435813424 V86.1583010814282 V86.99804780472223 V87.83779452801632 V88.67765901133319 V89.51740573462722 V90.35715245792125 V91.19701694123818 V92.03676366453217 V92.8765103878262 V93.7163748711431 V94.55612159443713 V95.3958683177311 V96.23573280104806 V97.07547952434203 V97.91522624763608 V98.7550907309531 V99.59483745424704 V100.4345841775411 V101.274448660858 V102.114195384152 V102.95394210744594 V103.79368883074 V104.63355331405701 V105.47330003735101 V106.31304676064501 V107.15291124396191 V107.99265796725597 V108.83240469055002 V109.67226917386687 V110.51201589716092 V111.35176262045492 V112.19162710377188 V113.03137382706593 V113.87112055035988 V114.71086727365393 V115.55073175697078 V116.3909495203565 V117.2305784836275 V118.07020744689869 V118.90983641016985 V119.74946537344094 V120.58909433671204 V121.42872329998325 V122.26952986348327 V123.10915882675442 V123.94878779002556 V124.78841675329662 V125.62804571656771 V126.46767467983891 V127.30730364311 V128.14693260638114 V128.98773916988122 V129.82736813315233 V130.66699709642342 V131.5066260596947 V132.34625502296572 V133.1858839862369 V134.02551294950803 V134.86514191277914 V135.70594847627913 V136.5455774395503 V137.38520640282144 V138.22483536609255 V139.0644643293637 V139.9040932926348 V140.743722255906 V141.58452881940607 V142.42415778267716 V143.26378674594827 V144.1034157092194 V144.94304467249052 V145.7826736357616 V146.62230259903276 V147.4619315623039 V148.30273812580398 V149.14236708907512 V149.98199605234623 V150.82162501561737 V151.66125397888854 V152.50088294215956 V153.34051190543073 V154.18131846893093 V155.0209474322019 V155.86057639547306 V156.70020535874426 V157.53983432201528 V158.37946328528645 V159.2190922485576 V160.0587212118287 V160.89952777532883 V161.73915673859997 V162.57878570187097 V163.41841466514217 V164.2580436284133 V165.09767259168436 V165.9373015549555 V166.77693051822672 V167.61773708172674 V168.45736604499788 V169.29699500826905 V170.13662397154008 V170.97625293481124 V171.81588189808238 V172.65551086135352 V173.4963174248536 V174.33594638812477 V175.1755753513958 V176.01520431466696 V176.85483327793816 V177.6944622412092 V178.53409120448023 V179.37372016775157 V180.2145267312515 V181.05415569452268 V181.89378465779376 V182.73341362106493 V183.57304258433606 V184.41267154760723 V185.25230051087826 V186.09310707437845 V186.93273603764953 V187.77236500092064 V188.61199396419178 V189.451622927463 V190.29125189073397 V191.13088085400508 V191.97050981727622 V192.81131638077636 V193.65094534404744 V194.4905743073186 V195.3302032705897 V196.1698322338608 V197.009461197132 V197.84909016040305 V198.6887191236742 V199.52952568717438 V200.3691546504454 V201.20878361371652 V202.04841257698772 V202.88804154025883 V203.7276705035299 V204.56729946680102 V205.40810603030118 V206.2477349935723 V207.08736395684343 V207.9269929201145 V208.76662188338557 V209.60625084665685 V210.44587980992787 V211.28550877319898 V212.12631533669915 V212.96594429997026 V213.80557326324129 V214.6452022265125 V215.4848311897836 V216.32446015305464 V217.16408911632578 V218.003718079597 V218.8445246430971 V219.68415360636823 V220.5237825696393 V221.36341153291042 V222.20304049618156 V223.04266945945267 V223.8822984227237 V224.72310498622394 V225.56273394949505 V226.40236291276614 V227.24199187603733 V228.08162083930844 V228.92124980257947 V229.76087876585063 V230.60050772912172 V231.44131429262185 V232.28094325589296 V233.12057221916416 V233.96020118243516 V234.79983014570635 V235.6394591089775 V236.4790880722485 V237.31989463574874 V238.15952359901982 V238.99915256229087 V239.83878152556196 V240.67841048883324 V241.51803945210432 V242.35766841537546 V243.19729737864657 V244.03810394214665 V244.8777329054178 V245.71736186868895 V246.55699083195998 V247.3966197952312 V248.23624875850228 V249.07587772177334 V249.91550668504448 V250.75631324854467 V251.5959422118157 V252.4355711750868 V253.27520013835795 V254.11482910162917 V254.9544580649003 V255.7940870281714 V256.63489359167136 V257.47452255494255 V258.3141515182137 V259.15378048148483 V259.99340944475597 V260.8330384080271 V261.67266737129813 V262.5122963345693 V263.35310289806944 V264.1927318613405 V265.03236082461166 V265.8719897878828 V266.7116187511539 V267.55124771442496 V268.39087667769616 V269.2305056409673 V270.0713122044674 V270.9109411677385 V271.7505701310097 V272.59019909428076 V273.42982805755196 V274.2694570208229 V275.1090859840941 V275.94989254759423 V276.7895215108653 V277.62915047413645 V278.46877943740765 V279.3084084006787 V280.1480373639498 V280.98766632722095 V281.82729529049203 V282.66810185399214 V283.5077308172633 V284.34735978053436 V285.1869887438056 V286.0266177070767 V286.8662466703478 V287.7058756336189 V288.54668219711897 V289.38631116039016 V290.22594012366125 V291.06556908693244 V291.9051980502035 V292.74482701347466 V293.5844559767458 V294.4240849400168 V295.264891503517 V296.10452046678813 V296.94414943005916 V297.78377839333035 V298.62340735660143 V299.4630363198727 V300.30266528314377 V301.1422942464148 V301.98310080991484 V302.82272977318604 V303.6623587364571 V304.5019876997283 V305.34161666299946 V306.1812456262705 V307.0208745895417 V307.86168115304184 V308.701310116313 V309.540939079584 V310.38056804285515 V311.22019700612617 V312.05982596939737 V312.89945493266845 V313.73908389593964 V314.57989045943964 V315.4195194227109 V316.259148385982 V317.0987773492531 V317.93840631252425 V318.77803527579533 V319.61766423906647 V320.4572932023376 V321.2980997658378 V322.13772872910886 V322.97735769238 V323.816986655651 V324.6566156189222 V325.4962445821933 V326.33587354546444 V327.17668010896443 V328.0163090722357 V328.8559380355069 V329.69556699877785 V330.535195962049 V331.3748249253202 V332.21445388859127 V333.0540828518624 V333.89488941536246 V334.7345183786337 V335.57414734190485 V336.4137763051758 V337.253405268447 V338.09303423171815 V338.93266319498923 V339.7734697584893 V340.6130987217604 V341.45272768503145 V342.29235664830264 V343.13198561157384 V343.971614574845 V344.8112435381161 V345.6508725013872 V346.4916790648872 V347.33130802815833 V348.1709369914295 V349.0105659547006 V349.8501949179718 V350.689823881243 V351.5294528445139 V352.36908180778534 V353.2098883712852 V354.04951733455636 V354.88914629782755 V355.72877526109875 V356.5684042243697 V357.4080331876408 V358.24766215091205 V359.08846871441216 V359.92809767768324 V360.7677266409544 V361.60735560422546 V362.44698456749654 V363.28661353076774 V364.1262424940387 V364.9658714573101 V365.8066780208102 V366.64630698408104 V367.4859359473523 V368.3255649106235 V369.16519387389457 V370.00482283716576 V370.84445180043684 V371.684080763708 V372.5248873272081 V373.3645162904792 V374.2041452537503 V375.0437742170213 V375.8834031802925 V376.72303214356356 V377.5626611068347 V378.4034676703348 V379.243096633606 V380.08272559687697 V380.92235456014834 V381.7619835234193 V382.6016124866905 V383.44124144996147 V384.2808704132326 V385.12167697673294 V385.961305940004 V386.800934903275 V387.64056386654624 V388.4801928298173 V389.3198217930884 V390.1594507563595 V391.00025731985966 V391.83988628313074 V392.67951524640193 V393.5191442096729 V394.35877317294427 V395.19840213621524 V396.0380310994863 V396.8776600627575 V397.7184666262577 V398.55809558952865 V399.39772455279973 V400.2373535160709 V401.07698247934206 V401.91661144261326 V402.75624040588434 V403.59586936915554 V404.4366759326555 V405.27630489592667 V406.11593385919775 V406.95556282246883 V407.7951917857402 V408.63482074901117 V409.47444971228225 V410.3152562757825 V411.1548852390535 V411.9945142023248 V412.8341431655958 V413.67377212886674 V414.5134010921381 V415.3530300554091 V416.1926590186803 V417.0334655821804 V417.8730945454515 V418.7127235087225 V419.5523524719936 V420.3919814352649 V421.231610398536 V422.0712393618071 V422.9120459253071 V423.75167488857835 V424.59130385184943 V425.4309328151206 V426.2705617783916 V427.1101907416629 V427.9498197049338 V428.7894486682049 V429.630255231705 V430.4698841949764 V431.30951315824734 V432.14914212151854 V432.98877108478973 V433.8284000480608 V434.66802901133184 V435.5076579746029 V436.34846453810314 V437.1880935013744 V438.0277224646455 V438.86735142791656 V439.7069803911875 V440.54660935445855 V441.38623831772975 V442.22704488123 V443.06667384450105 V443.9063028077721 V444.74593177104316 V445.58556073431447 V446.42518969758555 V447.26481866085675 V448.1044476241278 V448.94525418762777 V449.7848831508991 V450.6245121141702 V451.4641410774413 V452.3037700407125 V453.1433990039836 V453.98302796725466 V454.8238345307547 V455.6634634940259 V456.503092457297 V457.34272142056824 V458.1823503838392 V459.0219793471104 V459.8616083103815 V460.7012372736526 V461.5420438371526 V462.3816728004239 V463.221301763695 V464.06093072696603 V464.90055969023723 V465.7401886535082 V466.5798176167794 V467.4194465800507 V468.26025314355076 V469.0998821068217 V469.9395110700928 V470.77914003336383 V471.61876899663514 V472.45839795990645 V473.2980269231774 V474.13883348667747 V474.7182127993414 C354.95965910322144,478.74207278180637 353.08917075498226,490.0152397739443 343.59995180294635,499.7869664741179 L343.59275300237596,499.7952096757209 L343.5855542018053,499.80227527709485 C333.10410057113324,510.70449819710035 320.3178309578007,512.6663801786008 316.58405306189275,513.0102394454664 H316.26370643650495 H315.75499119618837 H315.2462759558719 H314.73756071555533 H314.22884547523887 H313.71893043482726 H313.21021519451057 H312.7014999541943 H312.1927847138777 H311.6840694735611 H311.17535423324455 H310.66543919283305 H310.1567239525167 H309.6480087122 H309.1392934718837 H308.63057823156714 H308.12186299125057 H307.61194795083895 H307.1032327105225 H306.59451747020614 H306.08580222988945 H305.5770869895728 H305.0671719491614 H304.55845670884486 H304.0497414685285 H303.54102622821205 H303.03231098789536 H302.52359574757884 H302.0136807071673 H301.5049654668508 H300.9962502265343 H300.48753498621784 H299.97881974590115 H299.4701045055848 H298.9601894651731 H298.4514742248566 H297.9427589845402 H297.43404374422374 H296.9253285039073 H296.4166132635906 H295.9066982231791 H295.39798298286263 H294.88926774254605 H294.38055250222965 H293.87183726191296 H293.3631220215965 H292.853206981185 H292.3444917408683 H291.8357765005521 H291.3270612602355 H290.818346019919 H290.3096307796024 H289.7997157391909 H289.2910004988742 H288.782285258558 H288.2735700182415 H287.76485477792494 H287.2561395376084 H286.74622449719664 H286.2375092568801 H285.7287940165639 H285.2200787762473 H284.7113635359306 H284.20264829561427 H283.69273325520277 H283.1840180148861 H282.67530277456956 H282.1665875342532 H281.65787229393675 H281.1491570536202 H280.63924201320845 H280.130526772892 H279.6218115325755 H279.1130962922591 H278.60438105194265 H278.09566581162596 H277.58575077121446 H277.0770355308979 H276.56832029058165 H276.059605050265 H275.55088980994833 H275.04097476953683 H274.53225952922025 H274.0235442889038 H273.51482904858744 H273.00611380827075 H272.49739856795435 H271.9874835275428 H271.47876828722616 H270.9700530469097 H270.46133780659335 H269.9526225662769 H269.4439073259602 H268.9339922855487 H268.4252770452321 H267.9165618049156 H267.40784656459914 H266.89913132428256 H266.3904160839661 H265.8805010435546 H265.3717858032379 H264.86307056292156 H264.35435532260516 H263.8456400822886 H263.336924841972 H262.8270098015604 H262.3182945612438 H261.80957932092747 H261.3008640806112 H260.7921488402943 H260.2834335999779 H259.77351855956624 H259.26480331924984 H258.7560880789334 H258.2473728386169 H257.7386575983003 H257.2299423579839 H256.72002731757243 H256.2113120772557 H255.70259683693905 H255.19388159662282 H254.68516635630627 H254.1764511159898 H253.6665360755782 H253.1578208352615 H252.64910559494504 H252.14039035462872 H251.63167511431226 H251.12295987399548 H250.61304483358407 H250.10432959326752 H249.59561435295095 H249.0868991126346 H248.57818387231794 H248.06946863200136 H247.55955359158997 H247.05083835127328 H246.54212311095696 H246.0334078706404 H245.52469263032393 H245.01477758991243 H244.50606234959577 H243.9973471092793 H243.48863186896284 H242.9799166286464 H242.47120138832983 H241.96128634791833 H241.45257110760164 H240.9438558672851 H240.43514062696863 H239.92642538665217 H239.41771014633574 H238.9077951059242 H238.39907986560766 H237.89036462529108 H237.38164938497454 H236.87293414465807 H236.3642189043416 H235.85430386393 H235.34558862361342 H234.836873383297 H234.32815814298053 H233.81944290266398 H233.31072766234752 H232.80081262193602 H232.29209738161944 H231.7833821413029 H231.27466690098632 H230.76595166066986 H230.25723642035342 H229.74732137994178 H229.23860613962523 H228.72989089930877 H228.22117565899234 H227.71246041867565 H227.2037451783593 H226.69383013794783 H226.18511489763122 H225.67639965731468 H225.16768441699833 H224.65896917668167 H224.1502539363652 H223.6403388959537 H223.1316236556369 H222.62290841532067 H222.11419317500412 H221.60547793468766 H221.0967626943711 H220.58684765395958 H220.07813241364303 H219.56941717332646 H219.0607019330099 H218.55198669269367 H218.04327145237687 H217.53335641196537 H217.0246411716489 H216.51592593133248 H216.00721069101579 H215.49849545069947 H214.98858041028794 H214.47986516997116 H213.9711499296548 H213.46243468933824 H212.9537194490217 H212.44500420870523 H211.93508916829373 H211.42637392797715 H210.9176586876606 H210.40894344734426 H209.9002282070276 H209.39151296671125 H208.88159792629972 H208.37288268598317 H207.8641674456666 H207.35545220535005 H206.84673696503347 H206.33802172471704 H205.8281066843055 H205.31939144398896 H204.8106762036725 H204.3019609633558 H203.79324572303938 H203.28453048272303 H202.7746154423113 H202.26590020199473 H201.7571849616784 H201.24846972136206 H200.73975448104525 H200.2310392407287 H199.72112420031718 H199.21240896000086 H198.70369371968428 H198.19497847936773 H197.68626323905139 H197.1775479987348 H196.66763295832308 H196.15891771800673 H195.6502024776902 H195.1414872373736 H194.63277199705706 H194.1240567567405 H193.614141716329 H193.10542647601252 H192.59671123569606 H192.08799599537963 H191.57928075506317 H191.07056551474662 H190.56065047433486 H190.05193523401832 H189.54321999370197 H189.03450475338542 H188.52578951306896 H188.01707427275238 H187.50715923234077 H186.9984439920243 H186.48972875170787 H185.9810135113913 H185.47229827107475 H184.96238323066322 H184.4536679903469 H183.94495275003032 H183.43623750971375 H182.9275222693972 H182.41880702908074 H181.90889198866913 H181.40017674835255 H180.89146150803612 H180.38274626771965 H179.8740310274031 H179.36531578708676 H178.85540074667503 H178.34668550635845 H177.8379702660421 H177.32925502572556 H176.82053978540898 H176.31182454509255 H175.8019095046809 H175.29319426436436 H174.7844790240479 H174.27576378373143 H173.7670485434149 H173.2583333030983 H172.7484182626868 H172.23970302237035 H171.73098778205392 H171.22227254173734 H170.71355730142076 H170.20484206110422 H169.6949270206927 H169.18621178037614 H168.6774965400598 H168.16878129974324 H167.66006605942667 H167.15135081911023 H166.6414357786987 H166.13272053838205 H165.6240052980657 H165.115290057749 H164.60657481743257 H164.0978595771161 H163.5879445367046 H163.07922929638792 H162.5705140560716 H162.06179881575503 H161.55308357543845 H161.04436833512213 H160.53445329471037 H160.02573805439394 H159.51702281407748 H159.00830757376093 H158.49959233344435 H157.9908770931279 H157.48096205271628 H156.97224681239982 H156.46353157208338 H155.95481633176692 H155.44610109145026 H154.93618605103873 H154.4274708107223 H153.91875557040572 H153.41004033008926 H152.9013250897727 H152.39260984945614 H151.88269480904464 H151.37397956872817 H150.86526432841163 H150.35654908809516 H149.84783384777862 H149.33911860746204 H148.82920356705054 H148.32048832673397 H147.8117730864175 H147.30305784610107 H146.7943426057846 H146.28562736546806 H145.77571232505642 H145.26699708473987 H144.7582818444233 H144.24956660410695 H143.7408513637905 H143.23213612347382 H142.72222108306232 H142.21350584274575 H141.7047906024293 H141.19607536211274 H140.6873601217964 H140.17864488147973 H139.6687298410682 H139.16001460075165 H138.6512993604352 H138.14258412011876 H137.63386887980218 H137.12515363948575 H136.6152385990741 H136.10652335875756 H135.5978081184411 H135.08909287812463 H134.58037763780808 H134.07166239749154 H133.56174735708 H133.05303211676346 H132.54431687644689 H132.03560163613054 H131.52688639581396 H131.01817115549753 H130.50825611508589 H129.99954087476934 H129.4908256344529 H128.98211039413644 H128.47339515381987 H127.96408001345583 H127.45512481312021 H126.94628959279417 H126.43733439245878 H125.92837919212316 H125.41954397179724 H124.91058877146173 H124.40163357112621 H123.8926783707907 H123.38384315046467 H122.87488795012905 H122.36593274979354 H121.85709752946762 H121.34814232913212 H120.83918712879661 H120.33035190847056 H119.82139670813494 H119.31244150779943 H118.80360628747351 H118.294651087138 H117.7856958868025 H117.276740686467 H116.76790546614107 H116.25895026580534 H115.74999506546983 H115.24115984514378 H114.73220464480839 H114.22324944447288 H113.71441422414674 H113.20545902381134 H112.69650382347584 H112.18754862314022 H111.67871340281418 H111.16975820247877 H110.66080300214327 H110.15196778181712 H109.64301258148173 H109.1340573811461 H108.62522216082019 H108.11626696048468 H107.60731176014917 H107.09847653982303 H106.58952133948762 H106.08056613915211 H105.57161093881649 H105.06277571849057 H104.55382051815506 H104.04486531781956 H103.53603009749352 H103.02707489715796 H102.51811969682244 H102.00928447649646 H101.5003292761609 H100.99137407582545 H100.48241887548988 H99.9735836551638 H99.46462845482834 H98.95567325449284 H98.4468380341669 H97.93788283383128 H97.42892763349572 H96.9200924131698 H96.41113721283423 H95.90218201249873 H95.39334679217275 H94.88439159183719 H94.37543639150168 H93.86648119116606 H93.35764597084012 H92.84869077050462 H92.33973557016911 H91.83090034984308 H91.32194514950751 H90.81298994917206 H90.30415472884603 H89.79519952851051 H89.286244328175 H88.77740910784897 H88.26845390751346 H87.7594987071779 H87.25054350684239 H86.74170828651647 H86.23275308618096 H85.72379788584534 H85.21496266551935 H84.70600746518379 H84.19705226484828 H83.6882170445223 H83.1792618441868 H82.67030664385129 H82.16135144351573 H81.65251622318969 H81.14356102285419 H80.63460582251867 H80.12577060219274 H79.61681540185712 H79.10786020152162 H78.59902498119564 H78.09006978086008 H77.58111458052457 H77.07227936019859 H76.56332415986301 H76.05436895952757 H75.545413759192 H75.03657853886597 H74.52762333853046 H74.01866813819495 H73.50983291786892 H73.00087771753341 H72.4919225171979 H71.98308729687186 H71.47413209653635 H70.96517689620084 H70.45622169586534 H69.9473864755393 H69.4384312752038 H68.92947607486829 H68.42064085454231 H67.91168565420685 H67.40273045387119 H66.89389523354521 H66.38494003320969 H65.87598483287418 H65.36702963253867 H64.85819441221264 H64.34923921187718 H63.84028401154168 H63.33144879121553 H62.82249359088008 H62.313538390544565 H61.80470317021859 H61.29574796988303 H60.786792769547574 H60.277957549221426 H59.76900234888591 H59.26004714855046 H58.751091948214956 H58.24225672788897 H57.73330152755341 H57.2243463272179 H56.71551110689187 H56.20655590655636 C53.150785044381486,513.0102394454664 36.79055090780665,512.3766905222687 24.265597755183915,499.14988475023347 L24.24616099364353,499.1298655463405 L24.22648427208409,499.1098463424476 C14.214704386634397,488.82115314174683 12.688546667683996,476.6989363845055 12.343544150342009,472.6185515910492 V280.2269365792923 C12.343544150342009,276.04645576637154 12.6716414843442,269.56729930645884 14.156886020052239,261.94822582488234 z" fill="#a0a031" stroke="#9b0d0d" stroke-width="7" class="" stroke-opacity="1" fill-opacity="1" opacity="1" filter="url(#f117)" marker-start="" marker-mid=""/></g><defs><filter  id="f117"    color-interpolation-filters="sRGB">
            <feGaussianBlur stdDeviation="6" in="SourceGraphic" result="result0"/>
            <feDiffuseLighting diffuseConstant="1" surfaceScale="10" result="result5">
                <feDistantLight elevation="25" azimuth="235"/>
            </feDiffuseLighting>
            <feComposite k1="1" in2="SourceGraphic" in="result5" result="result4" operator="arithmetic" k2="0" k3=".6"/>
        </filter></defs></svg>